{
  "accessors": [
    {
      "bufferView": 1,
      "componentType": 5126,
      "count": 1058,
      "max": [
        1.0064300298690796,
        1.0465799570083618,
        1.4254599809646606
      ],
      "min": [
        -1.0058599710464478,
        -0.36111000180244446,
        -1.0730199813842773
      ],
      "type": "VEC3"
    },
    {
      "bufferView": 1,
      "byteOffset": 12696,
      "componentType": 5126,
      "count": 1058,
      "max": [
        1,
        1,
        1
      ],
      "min": [
        -1,
        -1,
        -1
      ],
      "type": "VEC3"
    },
    {
      "bufferView": 0,
      "componentType": 5125,
      "count": 2253,
      "max": [
        1057
      ],
      "min": [
        0
      ],
      "type": "SCALAR"
    },
    {
      "bufferView": 1,
      "byteOffset": 25392,
      "componentType": 5126,
      "count": 5732,
      "max": [
        0.92091000080108643,
        1.0118299722671509,
        1.2586899995803833
      ],
      "min": [
        -0.92093998193740845,
        -0.35141998529434204,
        -0.37553998827934265
      ],
      "type": "VEC3"
    },
    {
      "bufferView": 1,
      "byteOffset": 94176,
      "componentType": 5126,
      "count": 5732,
      "max": [
        1,
        1,
        1
      ],
      "min": [
        -1,
        -1,
        -1
      ],
      "type": "VEC3"
    },
    {
      "bufferView": 0,
      "byteOffset": 9012,
      "componentType": 5125,
      "count": 10551,
      "max": [
        5731
      ],
      "min": [
        0
      ],
      "type": "SCALAR"
    },
    {
      "bufferView": 1,
      "byteOffset": 162960,
      "componentType": 5126,
      "count": 2852,
      "max": [
        0.96081000566482544,
        0.92918002605438232,
        1.4796600341796875
      ],
      "min": [
        -0.96109002828598022,
        -0.10997000336647034,
        0.063629999756813049
      ],
      "type": "VEC3"
    },
    {
      "bufferView": 1,
      "byteOffset": 197184,
      "componentType": 5126,
      "count": 2852,
      "max": [
        1,
        1,
        1
      ],
      "min": [
        -1,
        -0.99948728084564209,
        -1
      ],
      "type": "VEC3"
    },
    {
      "bufferView": 0,
      "byteOffset": 51216,
      "componentType": 5125,
      "count": 4920,
      "max": [
        2851
      ],
      "min": [
        0
      ],
      "type": "SCALAR"
    }
  ],
  "asset": {
    "extras": {
      "author": "Vynatic (https://sketchfab.com/vynatic)",
      "license": "CC-BY-4.0 (http://creativecommons.org/licenses/by/4.0/)",
      "source": "https://sketchfab.com/models/ae3dee84c9e54f8e88e90df0b45eda5c",
      "title": "Musical Keyboard"
    },
    "generator": "Sketchfab-3.18.7",
    "version": "2.0"
  },
  "bufferViews": [
    {
      "buffer": 0,
      "byteLength": 70896,
      "byteOffset": 0,
      "name": "floatBufferViews",
      "target": 34963
    },
    {
      "buffer": 0,
      "byteLength": 231408,
      "byteOffset": 70896,
      "byteStride": 12,
      "name": "floatBufferViews",
      "target": 34962
    }
  ],
  "buffers": [
    {
      "byteLength": 302304,
      "uri": "scene.bin"
    }
  ],
  "materials": [
    {
      "doubleSided": true,
      "emissiveFactor": [
        0,
        0,
        0
      ],
      "name": "Grey",
      "pbrMetallicRoughness": {
        "baseColorFactor": [
          0.080011472099999995,
          0.080011472099999995,
          0.080011472099999995,
          1
        ],
        "metallicFactor": 0,
        "roughnessFactor": 0.59999999999999998
      }
    },
    {
      "doubleSided": true,
      "emissiveFactor": [
        0,
        0,
        0
      ],
      "name": "White",
      "pbrMetallicRoughness": {
        "baseColorFactor": [
          1,
          1,
          1,
          1
        ],
        "metallicFactor": 0,
        "roughnessFactor": 0.59999999999999998
      }
    },
    {
      "doubleSided": true,
      "emissiveFactor": [
        0,
        0,
        0
      ],
      "name": "Black",
      "pbrMetallicRoughness": {
        "baseColorFactor": [
          0.037409774999999999,
          0.037409774999999999,
          0.037409774999999999,
          1
        ],
        "metallicFactor": 0,
        "roughnessFactor": 0.59999999999999998
      }
    }
  ],
  "meshes": [
    {
      "name": "Cube_0",
      "primitives": [
        {
          "attributes": {
            "NORMAL": 1,
            "POSITION": 0
          },
          "indices": 2,
          "material": 0,
          "mode": 4
        }
      ]
    },
    {
      "name": "Cube_1",
      "primitives": [
        {
          "attributes": {
            "NORMAL": 4,
            "POSITION": 3
          },
          "indices": 5,
          "material": 1,
          "mode": 4
        }
      ]
    },
    {
      "name": "Cube_2",
      "primitives": [
        {
          "attributes": {
            "NORMAL": 7,
            "POSITION": 6
          },
          "indices": 8,
          "material": 2,
          "mode": 4
        }
      ]
    }
  ],
  "nodes": [
    {
      "children": [
        1
      ],
      "name": "RootNode (gltf orientation matrix)",
      "rotation": [
        -0.70710678118654746,
        -0,
        -0,
        0.70710678118654757
      ]
    },
    {
      "children": [
        2
      ],
      "name": "RootNode (model correction matrix)"
    },
    {
      "children": [
        3
      ],
      "name": "Root"
    },
    {
      "children": [
        4,
        5,
        6
      ],
      "matrix": [
        2.5251999999999999,
        0,
        0,
        0,
        0,
        0.76792000000000016,
        0,
        0,
        0,
        0,
        0.11964000000000002,
        0,
        -0,
        -0.49061000000000005,
        0.14673000000000003,
        1
      ],
      "name": "Cube"
    },
    {
      "mesh": 0,
      "name": "Cube_0"
    },
    {
      "mesh": 1,
      "name": "Cube_1"
    },
    {
      "mesh": 2,
      "name": "Cube_2"
    }
  ],
  "scene": 0,
  "scenes": [
    {
      "name": "OSG_Scene",
      "nodes": [
        0
      ]
    }
  ]
}

